<?xml version="1.0" encoding="UTF-8" standalone="no"?>
<!-- Created with Inkscape (http://www.inkscape.org/) -->

<svg
   width="1200"
   height="630"
   viewBox="0 0 317.49999 166.6875"
   version="1.1"
   id="svg5"
   xml:space="preserve"
   inkscape:version="1.2.1 (9c6d41e410, 2022-07-14)"
   sodipodi:docname="ogimage.svg"
   inkscape:export-filename="ogimage.png"
   inkscape:export-xdpi="96"
   inkscape:export-ydpi="96"
   xmlns:inkscape="http://www.inkscape.org/namespaces/inkscape"
   xmlns:sodipodi="http://sodipodi.sourceforge.net/DTD/sodipodi-0.dtd"
   xmlns="http://www.w3.org/2000/svg"
   xmlns:svg="http://www.w3.org/2000/svg"><sodipodi:namedview
     id="namedview7"
     pagecolor="#505050"
     bordercolor="#ffffff"
     borderopacity="1"
     inkscape:showpageshadow="0"
     inkscape:pageopacity="0"
     inkscape:pagecheckerboard="1"
     inkscape:deskcolor="#505050"
     inkscape:document-units="mm"
     showgrid="false"
     inkscape:zoom="0.74564394"
     inkscape:cx="585.40005"
     inkscape:cy="256.15443"
     inkscape:window-width="1920"
     inkscape:window-height="1017"
     inkscape:window-x="1912"
     inkscape:window-y="-8"
     inkscape:window-maximized="1"
     inkscape:current-layer="layer1" /><defs
     id="defs2"><inkscape:path-effect
       hide_knots="false"
       only_selected="false"
       apply_with_radius="true"
       apply_no_radius="true"
       use_knot_distance="true"
       flexible="false"
       chamfer_steps="1"
       radius="8"
       mode="F"
       method="auto"
       unit="px"
       satellites_param="F,0,0,1,0,2.1166667,0,1 @ F,0,0,1,0,2.1166667,0,1 @ F,0,0,1,0,2.1166667,0,1 @ F,0,0,1,0,2.1166667,0,1 @ F,0,0,1,0,2.1166667,0,1 @ F,0,0,1,0,2.1166667,0,1 | F,0,0,1,0,2.1166667,0,1 @ F,0,0,1,0,2.1166667,0,1 @ F,0,0,1,0,2.1166667,0,1 @ F,0,0,1,0,2.1166667,0,1 @ F,0,0,1,0,2.1166667,0,1 @ F,0,0,1,0,2.1166667,0,1"
       lpeversion="1"
       is_visible="true"
       id="path-effect860"
       effect="fillet_chamfer"
       nodesatellites_param="F,0,0,1,0,2.1166667,0,1 @ F,0,0,1,0,2.1166667,0,1 @ F,0,0,1,0,2.1166667,0,1 @ F,0,0,1,0,2.1166667,0,1 @ F,0,0,1,0,2.1166667,0,1 @ F,0,0,1,0,2.1166667,0,1 | F,0,0,1,0,2.1166667,0,1 @ F,0,0,1,0,2.1166667,0,1 @ F,0,0,1,0,2.1166667,0,1 @ F,0,0,1,0,2.1166667,0,1 @ F,0,0,1,0,2.1166667,0,1 @ F,0,0,1,0,2.1166667,0,1" /><inkscape:path-effect
       hide_knots="false"
       only_selected="false"
       apply_with_radius="true"
       apply_no_radius="true"
       use_knot_distance="true"
       flexible="false"
       chamfer_steps="1"
       radius="8"
       mode="F"
       method="auto"
       unit="px"
       satellites_param="F,0,0,1,0,2.1166667,0,1 @ F,0,0,1,0,2.1166667,0,1 @ F,0,0,1,0,2.1166667,0,1 @ F,0,0,1,0,2.1166667,0,1 @ F,0,0,1,0,2.1166667,0,1 @ F,0,0,1,0,2.1166667,0,1 | F,0,0,1,0,2.1166667,0,1 @ F,0,0,1,0,2.1166667,0,1 @ F,0,0,1,0,2.1166667,0,1 @ F,0,0,1,0,2.1166667,0,1 @ F,0,0,1,0,2.1166667,0,1 @ F,0,0,1,0,2.1166667,0,1"
       lpeversion="1"
       is_visible="true"
       id="path-effect929"
       effect="fillet_chamfer"
       nodesatellites_param="F,0,0,1,0,2.1166667,0,1 @ F,0,0,1,0,2.1166667,0,1 @ F,0,0,1,0,2.1166667,0,1 @ F,0,0,1,0,2.1166667,0,1 @ F,0,0,1,0,2.1166667,0,1 @ F,0,0,1,0,2.1166667,0,1 | F,0,0,1,0,2.1166667,0,1 @ F,0,0,1,0,2.1166667,0,1 @ F,0,0,1,0,2.1166667,0,1 @ F,0,0,1,0,2.1166667,0,1 @ F,0,0,1,0,2.1166667,0,1 @ F,0,0,1,0,2.1166667,0,1" /><inkscape:path-effect
       hide_knots="false"
       only_selected="false"
       apply_with_radius="true"
       apply_no_radius="true"
       use_knot_distance="true"
       flexible="false"
       chamfer_steps="1"
       radius="8"
       mode="F"
       method="auto"
       unit="px"
       satellites_param="F,0,0,1,0,2.1166667,0,1 @ F,0,0,1,0,2.1166667,0,1 @ F,0,0,1,0,2.1166667,0,1 @ F,0,0,1,0,2.1166667,0,1 @ F,0,0,1,0,2.1166667,0,1 @ F,0,0,1,0,2.1166667,0,1 | F,0,0,1,0,2.1166667,0,1 @ F,0,0,1,0,2.1166667,0,1 @ F,0,0,1,0,2.1166667,0,1 @ F,0,0,1,0,2.1166667,0,1 @ F,0,0,1,0,2.1166667,0,1 @ F,0,0,1,0,2.1166667,0,1"
       lpeversion="1"
       is_visible="true"
       id="path-effect857"
       effect="fillet_chamfer"
       nodesatellites_param="F,0,0,1,0,2.1166667,0,1 @ F,0,0,1,0,2.1166667,0,1 @ F,0,0,1,0,2.1166667,0,1 @ F,0,0,1,0,2.1166667,0,1 @ F,0,0,1,0,2.1166667,0,1 @ F,0,0,1,0,2.1166667,0,1 | F,0,0,1,0,2.1166667,0,1 @ F,0,0,1,0,2.1166667,0,1 @ F,0,0,1,0,2.1166667,0,1 @ F,0,0,1,0,2.1166667,0,1 @ F,0,0,1,0,2.1166667,0,1 @ F,0,0,1,0,2.1166667,0,1" /><inkscape:path-effect
       effect="fillet_chamfer"
       id="path-effect860-3"
       is_visible="true"
       lpeversion="1"
       satellites_param="F,0,0,1,0,2.1166667,0,1 @ F,0,0,1,0,2.1166667,0,1 @ F,0,0,1,0,2.1166667,0,1 @ F,0,0,1,0,2.1166667,0,1 @ F,0,0,1,0,2.1166667,0,1 @ F,0,0,1,0,2.1166667,0,1 | F,0,0,1,0,2.1166667,0,1 @ F,0,0,1,0,2.1166667,0,1 @ F,0,0,1,0,2.1166667,0,1 @ F,0,0,1,0,2.1166667,0,1 @ F,0,0,1,0,2.1166667,0,1 @ F,0,0,1,0,2.1166667,0,1"
       unit="px"
       method="auto"
       mode="F"
       radius="8"
       chamfer_steps="1"
       flexible="false"
       use_knot_distance="true"
       apply_no_radius="true"
       apply_with_radius="true"
       only_selected="false"
       hide_knots="false"
       nodesatellites_param="F,0,0,1,0,2.1166667,0,1 @ F,0,0,1,0,2.1166667,0,1 @ F,0,0,1,0,2.1166667,0,1 @ F,0,0,1,0,2.1166667,0,1 @ F,0,0,1,0,2.1166667,0,1 @ F,0,0,1,0,2.1166667,0,1 | F,0,0,1,0,2.1166667,0,1 @ F,0,0,1,0,2.1166667,0,1 @ F,0,0,1,0,2.1166667,0,1 @ F,0,0,1,0,2.1166667,0,1 @ F,0,0,1,0,2.1166667,0,1 @ F,0,0,1,0,2.1166667,0,1" /><inkscape:path-effect
       hide_knots="false"
       only_selected="false"
       apply_with_radius="true"
       apply_no_radius="true"
       use_knot_distance="true"
       flexible="false"
       chamfer_steps="1"
       radius="8"
       mode="F"
       method="auto"
       unit="px"
       satellites_param="F,0,0,1,0,2.1166667,0,1 @ F,0,0,1,0,2.1166667,0,1 @ F,0,0,1,0,2.1166667,0,1 @ F,0,0,1,0,2.1166667,0,1 @ F,0,0,1,0,2.1166667,0,1 @ F,0,0,1,0,2.1166667,0,1 | F,0,0,1,0,2.1166667,0,1 @ F,0,0,1,0,2.1166667,0,1 @ F,0,0,1,0,2.1166667,0,1 @ F,0,0,1,0,2.1166667,0,1 @ F,0,0,1,0,2.1166667,0,1 @ F,0,0,1,0,2.1166667,0,1"
       lpeversion="1"
       is_visible="true"
       id="path-effect929-2"
       effect="fillet_chamfer"
       nodesatellites_param="F,0,0,1,0,2.1166667,0,1 @ F,0,0,1,0,2.1166667,0,1 @ F,0,0,1,0,2.1166667,0,1 @ F,0,0,1,0,2.1166667,0,1 @ F,0,0,1,0,2.1166667,0,1 @ F,0,0,1,0,2.1166667,0,1 | F,0,0,1,0,2.1166667,0,1 @ F,0,0,1,0,2.1166667,0,1 @ F,0,0,1,0,2.1166667,0,1 @ F,0,0,1,0,2.1166667,0,1 @ F,0,0,1,0,2.1166667,0,1 @ F,0,0,1,0,2.1166667,0,1" /><inkscape:path-effect
       hide_knots="false"
       only_selected="false"
       apply_with_radius="true"
       apply_no_radius="true"
       use_knot_distance="true"
       flexible="false"
       chamfer_steps="1"
       radius="8"
       mode="F"
       method="auto"
       unit="px"
       satellites_param="F,0,0,1,0,2.1166667,0,1 @ F,0,0,1,0,2.1166667,0,1 @ F,0,0,1,0,2.1166667,0,1 @ F,0,0,1,0,2.1166667,0,1 @ F,0,0,1,0,2.1166667,0,1 @ F,0,0,1,0,2.1166667,0,1 | F,0,0,1,0,2.1166667,0,1 @ F,0,0,1,0,2.1166667,0,1 @ F,0,0,1,0,2.1166667,0,1 @ F,0,0,1,0,2.1166667,0,1 @ F,0,0,1,0,2.1166667,0,1 @ F,0,0,1,0,2.1166667,0,1"
       lpeversion="1"
       is_visible="true"
       id="path-effect857-4"
       effect="fillet_chamfer"
       nodesatellites_param="F,0,0,1,0,2.1166667,0,1 @ F,0,0,1,0,2.1166667,0,1 @ F,0,0,1,0,2.1166667,0,1 @ F,0,0,1,0,2.1166667,0,1 @ F,0,0,1,0,2.1166667,0,1 @ F,0,0,1,0,2.1166667,0,1 | F,0,0,1,0,2.1166667,0,1 @ F,0,0,1,0,2.1166667,0,1 @ F,0,0,1,0,2.1166667,0,1 @ F,0,0,1,0,2.1166667,0,1 @ F,0,0,1,0,2.1166667,0,1 @ F,0,0,1,0,2.1166667,0,1" /><inkscape:path-effect
       effect="fillet_chamfer"
       id="path-effect860-2"
       is_visible="true"
       lpeversion="1"
       satellites_param="F,0,0,1,0,2.1166667,0,1 @ F,0,0,1,0,2.1166667,0,1 @ F,0,0,1,0,2.1166667,0,1 @ F,0,0,1,0,2.1166667,0,1 @ F,0,0,1,0,2.1166667,0,1 @ F,0,0,1,0,2.1166667,0,1 | F,0,0,1,0,2.1166667,0,1 @ F,0,0,1,0,2.1166667,0,1 @ F,0,0,1,0,2.1166667,0,1 @ F,0,0,1,0,2.1166667,0,1 @ F,0,0,1,0,2.1166667,0,1 @ F,0,0,1,0,2.1166667,0,1"
       unit="px"
       method="auto"
       mode="F"
       radius="8"
       chamfer_steps="1"
       flexible="false"
       use_knot_distance="true"
       apply_no_radius="true"
       apply_with_radius="true"
       only_selected="false"
       hide_knots="false"
       nodesatellites_param="F,0,0,1,0,2.1166667,0,1 @ F,0,0,1,0,2.1166667,0,1 @ F,0,0,1,0,2.1166667,0,1 @ F,0,0,1,0,2.1166667,0,1 @ F,0,0,1,0,2.1166667,0,1 @ F,0,0,1,0,2.1166667,0,1 | F,0,0,1,0,2.1166667,0,1 @ F,0,0,1,0,2.1166667,0,1 @ F,0,0,1,0,2.1166667,0,1 @ F,0,0,1,0,2.1166667,0,1 @ F,0,0,1,0,2.1166667,0,1 @ F,0,0,1,0,2.1166667,0,1" /></defs><g
     inkscape:label="Layer 1"
     inkscape:groupmode="layer"
     id="layer1"><rect
       style="fill:#241f25;fill-opacity:1;stroke-width:2.117;stroke-linecap:square;stroke-miterlimit:10;paint-order:markers fill stroke;stop-color:#000000"
       id="rect630-2"
       width="317.5"
       height="166.6875"
       x="0"
       y="-2.8421709e-14" /><path
       id="rect630"
       style="fill:#aa7088;fill-opacity:1;stroke-width:2.117;stroke-linecap:square;stroke-miterlimit:10;paint-order:markers fill stroke;stop-color:#000000"
       d="m 0,0 v 166.6875 l 222.15463,0 L 99.711111,0 Z"
       sodipodi:nodetypes="ccccc" /><path
       id="rect630-4"
       style="fill:#111111;fill-opacity:1;stroke-width:2.117;stroke-linecap:square;stroke-miterlimit:10;paint-order:markers fill stroke;stop-color:#000000"
       d="M 58.562201,0 181.00589,166.6875 H 222.1548 L 99.711111,0 Z" /><path
       id="rect630-4-4"
       style="fill:#111111;fill-opacity:1;stroke-width:2.117;stroke-linecap:square;stroke-miterlimit:10;paint-order:markers fill stroke;stop-color:#000000"
       d="M 58.5622,5e-7 181.00589,166.6875 H 222.1548 L 99.71111,5e-7 Z" /><g
       id="g449"
       transform="matrix(0.91357363,0,0,0.91357363,-44.578839,5.6804134)"
       style="fill:#e9e9e9;fill-opacity:1"><path
         id="rect1574"
         style="fill:#e9e9e9;fill-opacity:1;stroke-width:17.8932"
         d="m 124.73145,9.280765 -10.42439,8.313839 v 22.99246 l -0.12347,-0.04991 -5.69293,2.962791 V 20.889705 L 96.23839,31.577584 v 19.495494 l 7.78919,3.867288 2.11995,1.054089 -6.73984,4.28274 -3.1693,2.013183 v 8.636707 l 19.59038,12.646423 2.12238,7.92213 4.99266,-3.32838 0.90203,-0.60062 4.00509,-2.67079 v -0.27301 -0.50092 -10.07062 -6.542812 l -6.81106,7.428314 -10.51702,-8.579722 20.54963,-13.256576 v 18.420087 c 3.05383,-2.628758 6.10718,-5.258183 9.16137,-7.886511 v -31.56033 c -3.05408,-4.303865 -6.10778,-8.608181 -9.16137,-12.912326 v 20.988764 l -6.34101,4.031098 z m -14.39848,21.359129 0.38932,0.548395 z m 24.22933,64.324254 -0.40368,0.44157 2.94627,1.90158 z" /><path
         d="m 70.63528,8.815018 v 77.92271 l 25.68698,20.456942 v 9.36556 l 16.20046,12.76514 V 93.038388 L 88.05353,76.07358 V 25.015368 Z"
         style="fill:#e9e9e9;fill-opacity:1;stroke-width:17.017"
         id="rect1263" /><path
         d="m 175.65171,7.662428 -10.86832,10.585763 -17.41827,16.200371 v 51.468886 l -19.9156,13.47497 -4.64846,-3.22156 0.0129,33.423942 22.42982,-17.86455 16.54697,-13.175882 13.94497,2.027442 -7.72741,-8.209382 7.44021,-8.76255 -10.66654,2.11289 V 55.254521 l 10.8683,-10.626162 V 29.261303 l -10.8683,10.626119 V 33.80044 L 175.65029,23.212268 V 7.899786 Z"
         style="fill:#e9e9e9;fill-opacity:1;stroke-width:17.017"
         id="rect1278-3-1" /></g><g
       id="g456"
       transform="matrix(0.73768929,0,0,0.73768929,71.645326,26.18864)"
       style="fill:#e9e9e9;fill-opacity:1"><path
         id="path2138-4"
         style="fill:#e9e9e9;stroke-width:11.6707;fill-opacity:1"
         inkscape:transform-center-x="-6.857532e-06"
         inkscape:transform-center-y="-9.5185429e-05"
         d="m 318.58777,154.18889 -4.51328,7.81817 v 0.002 H 209.42454 l -4.51771,7.82374 H 174.9503 l -4.51326,-7.81929 0.001,-0.001 4.51771,-7.82374 h 125.09746 9.50788 z" /><path
         d="m -82.432318,154.18909 4.513267,7.81817 v 0.002 H 26.73091 l 4.51771,7.82373 h 29.95652 l 4.51327,-7.81929 -0.001,-0.001 -4.51772,-7.82373 h -125.097601 -9.507873 z"
         inkscape:transform-center-y="-0.00019074081"
         inkscape:transform-center-x="6.3313416e-06"
         style="fill:#e9e9e9;stroke-width:11.6707;fill-opacity:1"
         id="path2138" /><path
         id="path850"
         style="fill:#e9e9e9;stroke-width:7.96826;fill-opacity:1"
         inkscape:transform-center-x="0.00044671092"
         inkscape:transform-center-y="5.2029808e-05"
         d="m 137.12911,173.01344 4.1e-4,-0.002 -2e-4,-21.99972 -19.05166,-10.99909 -19.05204,10.99971 -3.4e-4,21.99878 19.05223,11.00003 -4.1e-4,0.002 0.002,-0.001 z" /><path
         d="m 158.86389,149.92484 6.97976,12.08882 -6.97976,12.08884 h -13.95877 l 6.97904,-12.08884 -6.97904,-12.08882 z"
         inkscape:transform-center-y="-6.9218709e-06"
         inkscape:transform-center-x="-8.5917179e-06"
         style="fill:#e9e9e9;stroke-width:5.05619;fill-opacity:1"
         id="path850-3-6" /><path
         id="path850-3-6-3"
         style="fill:#e9e9e9;stroke-width:5.05619;fill-opacity:1"
         inkscape:transform-center-x="-8.0935262e-06"
         inkscape:transform-center-y="-7.2713142e-06"
         d="m 77.29181,174.10222 -6.97976,-12.08882 6.97976,-12.08884 h 13.95878 l -6.97905,12.08884 6.97905,12.08882 z" /></g><path
       id="text512"
       style="font-size:38.8672px;line-height:normal;font-family:Arial;-inkscape-font-specification:Arial;text-decoration-color:#000000;fill:#e9e9e9;fill-opacity:1;stroke-width:25.9155;stroke-linecap:square;stroke-miterlimit:10;paint-order:markers fill stroke;stop-color:#000000"
       d="M 210.72667 25.044466 L 223.65043 56.138175 L 228.9297 56.138175 L 216.03901 25.044466 L 210.72667 25.044466 z M 236.70338 25.044466 L 236.70338 29.708264 L 236.70338 51.473861 L 241.36718 56.138175 L 241.36718 29.708264 L 263.13278 29.708264 L 258.46898 25.044466 L 241.36718 25.044466 L 236.70338 25.044466 z M 275.57026 25.044466 L 300.05662 56.138175 L 306.66397 56.138175 L 282.17761 25.044466 L 275.57026 25.044466 z M 300.05662 25.044466 L 292.41264 34.761186 L 295.71632 38.939225 L 306.66397 25.044466 L 300.05662 25.044466 z M 209.62545 27.700118 L 197.83599 56.138175 L 203.11525 56.138175 L 212.28162 34.081124 L 209.62545 27.700118 z M 251.99082 34.372579 L 251.37535 34.955489 L 248.10424 38.259163 L 247.97453 38.356315 L 243.43992 38.356315 L 245.70748 40.655916 L 243.43992 42.922961 L 247.97453 42.922961 L 250.01523 44.963664 L 253.3189 48.267338 L 256.62258 51.571012 L 259.92625 54.842647 L 261.18974 56.138175 L 267.79709 56.138175 L 266.50156 54.842647 L 263.22993 51.571012 L 259.92625 48.267338 L 256.62258 44.963664 L 253.3189 41.659989 L 252.31483 40.655916 L 253.90181 39.036377 L 258.46898 39.036377 L 263.13278 34.372579 L 258.46898 34.372579 L 254.67903 34.372579 L 251.99082 34.372579 z M 213.38284 36.769332 L 210.53237 43.409237 L 213.38284 46.259192 L 216.23331 43.409237 L 213.38284 36.769332 z M 286.51791 42.2429 L 275.57026 56.138175 L 282.17761 56.138175 L 289.82159 46.421456 L 286.51791 42.2429 z M 158.96859 51.473861 L 163.63291 56.138175 L 185.3985 56.138175 L 190.0623 51.473861 L 158.96859 51.473861 z M 164.63285 77.445919 L 159.94528 82.133488 L 159.94528 93.950854 L 164.63285 89.262769 L 164.63285 82.133488 L 191.1966 82.133488 L 186.50903 77.445919 L 164.63285 77.445919 z M 203.69764 77.445919 L 199.00956 82.133488 L 199.00956 93.950854 L 203.69764 89.262769 L 203.69764 82.133488 L 225.57383 82.133488 L 225.57383 93.950854 L 230.2614 89.262769 L 230.2614 82.133488 L 225.57383 77.445919 L 203.69764 77.445919 z M 238.07436 77.445919 L 238.07436 82.133488 L 238.07436 104.00967 L 242.76193 108.69776 L 242.76193 82.133488 L 264.63811 82.133488 L 259.95054 77.445919 L 242.76193 77.445919 L 238.07436 77.445919 z M 281.82673 77.445919 L 277.13864 82.133488 L 277.13864 92.941614 L 281.82673 88.254045 L 281.82673 82.133488 L 303.70291 82.133488 L 308.39048 82.133488 L 303.70291 77.445919 L 299.01482 77.445919 L 281.82673 77.445919 z M 253.43983 86.821574 L 252.82126 87.407585 L 249.53309 90.727795 L 249.40286 90.825464 L 244.84552 90.825464 L 247.12445 93.136951 L 244.84552 95.415881 L 249.40286 95.415881 L 251.4539 97.466402 L 254.77463 100.78713 L 258.09484 104.10734 L 261.41557 107.39551 L 262.68474 108.69776 L 269.3262 108.69776 L 268.02395 107.39551 L 264.73578 104.10734 L 261.41557 100.78713 L 258.09484 97.466402 L 254.77463 94.146191 L 253.76539 93.136951 L 255.36064 91.509143 L 259.95054 91.509143 L 264.63811 86.821574 L 259.95054 86.821574 L 256.14147 86.821574 L 253.43983 86.821574 z M 281.82673 91.183582 L 277.13864 95.871667 L 281.82673 95.871667 L 286.51429 95.871667 L 289.63969 95.871667 L 294.32725 95.871667 L 299.01482 95.871667 L 303.70291 91.183582 L 299.01482 91.183582 L 294.32725 91.183582 L 289.63969 91.183582 L 286.51429 91.183582 L 281.82673 91.183582 z M 164.63285 92.192822 L 159.94528 96.880391 L 159.94528 104.00967 L 164.63285 108.69776 L 186.50903 108.69776 L 191.1966 104.00967 L 164.63285 104.00967 L 164.63285 92.192822 z M 203.69764 92.192822 L 199.00956 96.880391 L 199.00956 104.00967 L 203.69764 108.69776 L 225.57383 108.69776 L 230.2614 104.00967 L 230.2614 92.192822 L 225.57383 96.880391 L 225.57383 104.00967 L 203.69764 104.00967 L 203.69764 92.192822 z M 277.13864 97.922188 L 277.13864 104.00967 L 281.82673 108.69776 L 303.70291 108.69776 L 308.39048 104.00967 L 303.70291 104.00967 L 281.82673 104.00967 L 281.82673 97.922188 L 277.13864 97.922188 z " /></g></svg>
