<?xml version="1.0" encoding="UTF-8" standalone="no"?>
<svg
   width="256"
   height="256"
   viewBox="0 0 67.733332 67.733335"
   version="1.1"
   id="svg8"
   inkscape:version="1.2.1 (9c6d41e410, 2022-07-14)"
   sodipodi:docname="portfolio.svg"
   inkscape:export-filename="portfolioicon.png"
   inkscape:export-xdpi="96"
   inkscape:export-ydpi="96"
   xmlns:inkscape="http://www.inkscape.org/namespaces/inkscape"
   xmlns:sodipodi="http://sodipodi.sourceforge.net/DTD/sodipodi-0.dtd"
   xmlns="http://www.w3.org/2000/svg"
   xmlns:svg="http://www.w3.org/2000/svg"
   xmlns:rdf="http://www.w3.org/1999/02/22-rdf-syntax-ns#"
   xmlns:cc="http://creativecommons.org/ns#"
   xmlns:dc="http://purl.org/dc/elements/1.1/">
  <defs
     id="defs2">
    <inkscape:path-effect
       effect="fillet_chamfer"
       id="path-effect5310"
       is_visible="true"
       lpeversion="1"
       nodesatellites_param="F,0,0,1,0,0.52916667,0,1 @ F,0,0,1,0,0.52916667,0,1 @ F,0,0,1,0,0.52916667,0,1 @ F,0,0,1,0,0.52916667,0,1 | F,0,0,1,0,0.52916667,0,1 @ F,0,0,1,0,0.52916667,0,1 @ F,0,0,1,0,0.52916667,0,1 @ F,0,0,1,0,0.52916667,0,1 | F,0,0,1,0,0.52916667,0,1 @ F,0,0,1,0,0.52916667,0,1 @ F,0,0,1,0,0.52916667,0,1 @ F,0,0,1,0,0.52916667,0,1 | F,0,0,1,0,0.52916667,0,1 @ F,0,0,1,0,0.52916667,0,1 @ F,0,0,1,0,0.52916667,0,1 @ F,0,0,1,0,0.52916667,0,1 | F,0,0,1,0,0.52916667,0,1 @ F,0,0,1,0,0.52916667,0,1 @ F,0,0,1,0,0.52916667,0,1 @ F,0,0,1,0,0.52916667,0,1 | F,0,0,1,0,0.52916667,0,1 @ F,0,0,1,0,0.52916667,0,1 @ F,0,0,1,0,0.52916667,0,1 @ F,0,0,1,0,0.52916667,0,1 | F,0,0,1,0,0.52916667,0,1 @ F,0,0,1,0,0.52916667,0,1 @ F,0,0,1,0,0.52916667,0,1 @ F,0,0,1,0,0.52916667,0,1"
       unit="px"
       method="auto"
       mode="F"
       radius="2"
       chamfer_steps="1"
       flexible="false"
       use_knot_distance="true"
       apply_no_radius="true"
       apply_with_radius="true"
       only_selected="false"
       hide_knots="false" />
    <inkscape:path-effect
       effect="fillet_chamfer"
       id="path-effect5057"
       is_visible="true"
       lpeversion="1"
       nodesatellites_param="F,0,0,1,0,1.0583333,0,1 @ F,0,0,1,0,1.0583333,0,1 @ F,0,0,1,0,1.0583333,0,1 @ F,0,0,1,0,1.0583333,0,1 | F,0,0,1,0,1.0583333,0,1 @ F,0,0,1,0,1.0583333,0,1 @ F,0,0,1,0,1.0583333,0,1 @ F,0,0,1,0,1.0583333,0,1 @ F,0,0,1,0,1.0583333,0,1 @ F,0,0,1,0,1.0583333,0,1 @ F,0,0,1,0,1.0583333,0,1 @ F,0,0,1,0,1.0583333,0,1 | F,0,0,1,0,1.0583333,0,1 @ F,0,0,1,0,1.0583333,0,1 @ F,0,0,1,0,1.0583333,0,1 @ F,0,0,1,0,1.0583333,0,1"
       unit="px"
       method="auto"
       mode="F"
       radius="4"
       chamfer_steps="1"
       flexible="false"
       use_knot_distance="true"
       apply_no_radius="true"
       apply_with_radius="true"
       only_selected="false"
       hide_knots="false" />
    <inkscape:path-effect
       effect="fillet_chamfer"
       id="path-effect4957"
       is_visible="true"
       lpeversion="1"
       nodesatellites_param="F,0,0,1,0,1.5835042,0,1 @ F,0,0,1,0,1.871414,0,1 @ F,0,0,1,0,1.7274591,0,1 @ F,0,0,1,0,1.4395493,0,1 @ F,0,0,1,0,1.182623,0,1"
       unit="px"
       method="auto"
       mode="F"
       radius="0"
       chamfer_steps="1"
       flexible="false"
       use_knot_distance="true"
       apply_no_radius="true"
       apply_with_radius="true"
       only_selected="false"
       hide_knots="false" />
    <inkscape:path-effect
       effect="fillet_chamfer"
       id="path-effect4950"
       is_visible="true"
       lpeversion="1"
       nodesatellites_param="F,0,0,1,0,0,0,1 @ F,0,0,1,0,0,0,1 @ F,0,0,1,0,0.78353386,0,1 @ F,0,0,1,0,0.70038501,0,1 @ F,0,0,1,0,0,0,1 @ F,0,0,1,0,0,0,1 @ F,0,0,1,0,0,0,1 @ F,0,0,1,0,2.5352667,0,1 @ F,0,0,1,0,0,0,1 @ F,0,0,1,0,0,0,1 @ F,0,0,1,0,0,0,1 @ F,0,0,1,0,0,0,1 @ F,0,0,1,0,0.20596534,0,1 @ F,0,0,1,0,0.25115413,0,1 @ F,0,0,1,0,0,0,1 @ F,0,0,1,0,0,0,1 | F,0,0,1,0,0,0,1 @ F,0,0,1,0,1.2907716,0,1 @ F,0,0,1,0,1.332935,0,1 @ F,0,0,1,0,0,0,1 @ F,0,0,1,0,0,0,1 @ F,0,0,1,0,2.8071211,0,1 @ F,0,0,1,0,0,0,1 @ F,0,0,1,0,2.855106,0,1 @ F,0,0,1,0,0,0,1 | F,0,0,1,0,0,0,1 @ F,0,0,1,0,0,0,1 @ F,0,0,1,0,0,0,1 @ F,0,0,1,0,0,0,1"
       unit="px"
       method="auto"
       mode="F"
       radius="0"
       chamfer_steps="1"
       flexible="false"
       use_knot_distance="true"
       apply_no_radius="true"
       apply_with_radius="true"
       only_selected="false"
       hide_knots="false" />
    <inkscape:path-effect
       effect="fillet_chamfer"
       id="path-effect780"
       is_visible="true"
       lpeversion="1"
       nodesatellites_param="F,0,0,1,0,0,0,1 @ F,0,0,1,0,0,0,1 @ F,0,0,1,0,0,0,1 @ F,0,0,1,0,0,0,1 @ F,0,0,1,0,0,0,1 @ F,0,0,1,0,0,0,1 @ F,0,0,1,0,0,0,1 @ F,0,0,1,0,0,0,1 @ F,0,0,1,0,0,0,1 @ F,0,0,1,0,0,0,1 @ F,0,0,1,0,1.6999959,0,1 @ F,0,0,1,0,0.6375524,0,1 @ F,0,0,1,0,0,0,1 @ F,0,0,1,0,0.45585727,0,1 @ F,0,0,1,0,0,0,1 @ F,0,0,1,0,0,0,1 @ F,0,0,1,0,0,0,1 @ F,0,0,1,0,0,0,1 @ F,0,0,1,0,0,0,1 @ F,0,0,1,0,0,0,1 @ F,0,0,1,0,0,0,1 | F,0,0,1,0,0,0,1 @ F,0,0,1,0,0.55985328,0,1 @ F,0,0,1,0,1.017915,0,1 @ F,0,0,1,0,1.0518456,0,1 @ F,0,0,1,0,0.47502702,0,1 @ F,0,0,1,0,0,0,1 @ F,0,0,1,0,0,0,1 | F,0,0,1,0,0,0,1 @ F,0,0,1,0,0,0,1 @ F,0,0,1,0,0,0,1 @ F,0,0,1,0,0,0,1 | F,0,0,1,0,0,0,1 @ F,0,0,1,0,0,0,1 @ F,0,0,1,0,0,0,1 @ F,0,0,1,0,0,0,1 | F,0,0,1,0,0.50775252,0,1 @ F,0,0,1,0,0.50775252,0,1 @ F,0,0,1,0,0.50775252,0,1 @ F,0,0,1,0,0.50775252,0,1 @ F,0,0,1,0,0,0,1 @ F,0,0,1,0,0,0,1 @ F,0,0,1,0,0,0,1 @ F,0,0,1,0,0,0,1 @ F,0,0,1,0,0.42742614,0,1 @ F,0,0,1,0,0,0,1 @ F,0,0,1,0,0.50166128,0,1"
       unit="px"
       method="auto"
       mode="F"
       radius="2"
       chamfer_steps="1"
       flexible="false"
       use_knot_distance="true"
       apply_no_radius="true"
       apply_with_radius="true"
       only_selected="false"
       hide_knots="false" />
    <inkscape:path-effect
       effect="fillet_chamfer"
       id="path-effect860"
       is_visible="true"
       lpeversion="1"
       satellites_param="F,0,0,1,0,1.0583333,0,1 @ F,0,0,1,0,1.0583333,0,1 @ F,0,0,1,0,1.0583333,0,1 @ F,0,0,1,0,1.0583333,0,1 @ F,0,0,1,0,1.0583333,0,1 @ F,0,0,1,0,1.0583333,0,1 | F,0,0,1,0,1.0583333,0,1 @ F,0,0,1,0,1.0583333,0,1 @ F,0,0,1,0,1.0583333,0,1 @ F,0,0,1,0,1.0583333,0,1 @ F,0,0,1,0,1.0583333,0,1 @ F,0,0,1,0,1.0583333,0,1"
       unit="px"
       method="auto"
       mode="F"
       radius="4"
       chamfer_steps="1"
       flexible="false"
       use_knot_distance="true"
       apply_no_radius="true"
       apply_with_radius="true"
       only_selected="false"
       hide_knots="false"
       nodesatellites_param="F,0,0,1,0,1.0583333,0,1 @ F,0,0,1,0,1.0583333,0,1 @ F,0,0,1,0,1.0583333,0,1 @ F,0,0,1,0,1.0583333,0,1 @ F,0,0,1,0,1.0583333,0,1 @ F,0,0,1,0,1.0583333,0,1 | F,0,0,1,0,1.0583333,0,1 @ F,0,0,1,0,1.0583333,0,1 @ F,0,0,1,0,1.0583333,0,1 @ F,0,0,1,0,1.0583333,0,1 @ F,0,0,1,0,1.0583333,0,1 @ F,0,0,1,0,1.0583333,0,1" />
    <inkscape:path-effect
       effect="fillet_chamfer"
       id="path-effect4957-8"
       is_visible="true"
       lpeversion="1"
       nodesatellites_param="F,0,0,1,0,1.5835042,0,1 @ F,0,0,1,0,1.871414,0,1 @ F,0,0,1,0,1.7274591,0,1 @ F,0,0,1,0,1.4395493,0,1 @ F,0,0,1,0,1.182623,0,1 @ F,0,0,1,0,0,0,1"
       unit="px"
       method="auto"
       mode="F"
       radius="0"
       chamfer_steps="1"
       flexible="false"
       use_knot_distance="true"
       apply_no_radius="true"
       apply_with_radius="true"
       only_selected="false"
       hide_knots="false" />
  </defs>
  <sodipodi:namedview
     id="base"
     pagecolor="#000000"
     bordercolor="#666666"
     borderopacity="1.0"
     inkscape:pageopacity="0"
     inkscape:pageshadow="2"
     inkscape:zoom="1.3784697"
     inkscape:cx="197.68299"
     inkscape:cy="60.211698"
     inkscape:document-units="mm"
     inkscape:current-layer="layer1"
     inkscape:document-rotation="0"
     showgrid="false"
     units="px"
     inkscape:pagecheckerboard="true"
     inkscape:window-width="1920"
     inkscape:window-height="1017"
     inkscape:window-x="1841"
     inkscape:window-y="1072"
     inkscape:window-maximized="1"
     inkscape:showpageshadow="0"
     inkscape:deskcolor="#000000" />
  <metadata
     id="metadata5">
    <rdf:RDF>
      <cc:Work
         rdf:about="">
        <dc:format>image/svg+xml</dc:format>
        <dc:type
           rdf:resource="http://purl.org/dc/dcmitype/StillImage" />
      </cc:Work>
    </rdf:RDF>
  </metadata>
  <g
     inkscape:label="Layer 1"
     inkscape:groupmode="layer"
     id="layer1">
    <path
       id="rect4986"
       style="fill:#000000;fill-opacity:1;stroke-width:2.117;stroke-linecap:square;stroke-miterlimit:10;paint-order:markers fill stroke;stop-color:#000000"
       d="m 20.849374,19.913734 a 1.0583333,1.0583333 0 0 0 -1.058334,1.058333 v 5.755204 a 1.0583333,1.0583333 0 0 0 1.058334,1.058334 h 15.798518 a 1.0583333,1.0583333 0 0 0 1.058334,-1.058334 v -5.755204 a 1.0583333,1.0583333 0 0 0 -1.058334,-1.058333 z m 20.279382,0 a 1.0583333,1.0583333 0 0 0 -1.058333,1.058333 v 7.926648 a 1.0583333,1.0583333 0 0 1 -1.058334,1.058333 h -7.927164 a 1.0583333,1.0583333 0 0 0 -1.058334,1.058334 v 5.755204 a 1.0583333,1.0583333 0 0 0 1.058334,1.058333 h 7.927164 7.871871 a 1.0583333,1.0583333 0 0 0 1.058334,-1.058333 V 31.015382 20.972067 A 1.0583333,1.0583333 0 0 0 46.88396,19.913734 Z M 20.849374,30.048516 a 1.0583333,1.0583333 0 0 0 -1.058334,1.058333 v 15.798519 a 1.0583333,1.0583333 0 0 0 1.058334,1.058333 h 5.755204 a 1.0583333,1.0583333 0 0 0 1.058333,-1.058333 V 31.106849 a 1.0583333,1.0583333 0 0 0 -1.058333,-1.058333 z m 12.008569,10.151835 a 0.52916667,0.52916667 0 0 0 -0.529167,0.529166 v 1.914095 a 0.52907464,0.52907464 0 0 0 0.529167,0.529167 l 1.914095,-5.17e-4 a 0.52925872,0.52925872 0 0 0 0.529167,-0.529166 v -1.913579 a 0.52916667,0.52916667 0 0 0 -0.529167,-0.529166 z m 4.779036,0 a 0.52916667,0.52916667 0 0 0 -0.529166,0.529166 v 1.914095 a 0.52907464,0.52907464 0 0 0 0.529166,0.529167 l 1.914095,-5.17e-4 a 0.52925872,0.52925872 0 0 0 0.529167,-0.529166 v -1.913579 a 0.52916667,0.52916667 0 0 0 -0.529167,-0.529166 z m 4.779037,0 a 0.52916667,0.52916667 0 0 0 -0.529167,0.529166 v 1.914095 a 0.52907464,0.52907464 0 0 0 0.529167,0.529167 l 1.914095,-5.17e-4 a 0.52925872,0.52925872 0 0 0 0.529167,-0.529166 v -1.913579 a 0.52916667,0.52916667 0 0 0 -0.529167,-0.529166 z m -11.860258,4.790922 a 0.52916667,0.52916667 0 0 0 -0.529167,0.529166 v 1.914095 a 0.52907464,0.52907464 0 0 0 0.529167,0.529167 l 1.914095,-5.17e-4 a 0.52925872,0.52925872 0 0 0 0.529167,-0.529166 v -1.913579 a 0.52916667,0.52916667 0 0 0 -0.529167,-0.529166 z m 4.779036,0 a 0.52916667,0.52916667 0 0 0 -0.529166,0.529166 v 1.914095 a 0.52907464,0.52907464 0 0 0 0.529166,0.529167 l 1.914095,-5.17e-4 a 0.52925872,0.52925872 0 0 0 0.529167,-0.529166 v -1.913579 a 0.52916667,0.52916667 0 0 0 -0.529167,-0.529166 z m 4.779037,0 a 0.52916667,0.52916667 0 0 0 -0.529167,0.529166 v 1.914095 a 0.52907464,0.52907464 0 0 0 0.529167,0.529167 l 1.914095,-5.17e-4 a 0.52925872,0.52925872 0 0 0 0.529167,-0.529166 v -1.913579 a 0.52916667,0.52916667 0 0 0 -0.529167,-0.529166 z m 4.779036,0 a 0.52916667,0.52916667 0 0 0 -0.529166,0.529166 v 1.914095 a 0.52907464,0.52907464 0 0 0 0.529166,0.529167 l 1.914095,-5.17e-4 a 0.52925872,0.52925872 0 0 0 0.529167,-0.529166 v -1.913579 a 0.52916667,0.52916667 0 0 0 -0.529167,-0.529166 z" />
  </g>
</svg>
