<?xml version="1.0" encoding="UTF-8" standalone="no"?>
<svg
   width="256"
   height="256"
   viewBox="0 0 67.733332 67.733335"
   version="1.1"
   id="svg8"
   inkscape:version="1.2.1 (9c6d41e410, 2022-07-14)"
   sodipodi:docname="projects.svg"
   inkscape:export-filename="basicicon.png"
   inkscape:export-xdpi="96"
   inkscape:export-ydpi="96"
   xmlns:inkscape="http://www.inkscape.org/namespaces/inkscape"
   xmlns:sodipodi="http://sodipodi.sourceforge.net/DTD/sodipodi-0.dtd"
   xmlns="http://www.w3.org/2000/svg"
   xmlns:svg="http://www.w3.org/2000/svg"
   xmlns:rdf="http://www.w3.org/1999/02/22-rdf-syntax-ns#"
   xmlns:cc="http://creativecommons.org/ns#"
   xmlns:dc="http://purl.org/dc/elements/1.1/">
  <defs
     id="defs2">
    <inkscape:path-effect
       effect="fillet_chamfer"
       id="path-effect780"
       is_visible="true"
       lpeversion="1"
       nodesatellites_param="F,0,0,1,0,0,0,1 @ F,0,0,1,0,0,0,1 @ F,0,0,1,0,0,0,1 @ F,0,0,1,0,0,0,1 @ F,0,0,1,0,0,0,1 @ F,0,0,1,0,0,0,1 @ F,0,0,1,0,0,0,1 @ F,0,0,1,0,0,0,1 @ F,0,0,1,0,0,0,1 @ F,0,0,1,0,0,0,1 @ F,0,0,1,0,1.6999959,0,1 @ F,0,0,1,0,0.6375524,0,1 @ F,0,0,1,0,0,0,1 @ F,0,0,1,0,0.45585727,0,1 @ F,0,0,1,0,0,0,1 @ F,0,0,1,0,0,0,1 @ F,0,0,1,0,0,0,1 @ F,0,0,1,0,0,0,1 @ F,0,0,1,0,0,0,1 @ F,0,0,1,0,0,0,1 @ F,0,0,1,0,0,0,1 | F,0,0,1,0,0,0,1 @ F,0,0,1,0,0.55985328,0,1 @ F,0,0,1,0,1.017915,0,1 @ F,0,0,1,0,1.0518456,0,1 @ F,0,0,1,0,0.47502702,0,1 @ F,0,0,1,0,0,0,1 @ F,0,0,1,0,0,0,1 | F,0,0,1,0,0,0,1 @ F,0,0,1,0,0,0,1 @ F,0,0,1,0,0,0,1 @ F,0,0,1,0,0,0,1 | F,0,0,1,0,0,0,1 @ F,0,0,1,0,0,0,1 @ F,0,0,1,0,0,0,1 @ F,0,0,1,0,0,0,1 | F,0,0,1,0,0.50775252,0,1 @ F,0,0,1,0,0.50775252,0,1 @ F,0,0,1,0,0.50775252,0,1 @ F,0,0,1,0,0.50775252,0,1 @ F,0,0,1,0,0,0,1 @ F,0,0,1,0,0,0,1 @ F,0,0,1,0,0,0,1 @ F,0,0,1,0,0,0,1 @ F,0,0,1,0,0.42742614,0,1 @ F,0,0,1,0,0,0,1 @ F,0,0,1,0,0.50166128,0,1"
       unit="px"
       method="auto"
       mode="F"
       radius="2"
       chamfer_steps="1"
       flexible="false"
       use_knot_distance="true"
       apply_no_radius="true"
       apply_with_radius="true"
       only_selected="false"
       hide_knots="false" />
    <inkscape:path-effect
       effect="fillet_chamfer"
       id="path-effect860"
       is_visible="true"
       lpeversion="1"
       satellites_param="F,0,0,1,0,1.0583333,0,1 @ F,0,0,1,0,1.0583333,0,1 @ F,0,0,1,0,1.0583333,0,1 @ F,0,0,1,0,1.0583333,0,1 @ F,0,0,1,0,1.0583333,0,1 @ F,0,0,1,0,1.0583333,0,1 | F,0,0,1,0,1.0583333,0,1 @ F,0,0,1,0,1.0583333,0,1 @ F,0,0,1,0,1.0583333,0,1 @ F,0,0,1,0,1.0583333,0,1 @ F,0,0,1,0,1.0583333,0,1 @ F,0,0,1,0,1.0583333,0,1"
       unit="px"
       method="auto"
       mode="F"
       radius="4"
       chamfer_steps="1"
       flexible="false"
       use_knot_distance="true"
       apply_no_radius="true"
       apply_with_radius="true"
       only_selected="false"
       hide_knots="false"
       nodesatellites_param="F,0,0,1,0,1.0583333,0,1 @ F,0,0,1,0,1.0583333,0,1 @ F,0,0,1,0,1.0583333,0,1 @ F,0,0,1,0,1.0583333,0,1 @ F,0,0,1,0,1.0583333,0,1 @ F,0,0,1,0,1.0583333,0,1 | F,0,0,1,0,1.0583333,0,1 @ F,0,0,1,0,1.0583333,0,1 @ F,0,0,1,0,1.0583333,0,1 @ F,0,0,1,0,1.0583333,0,1 @ F,0,0,1,0,1.0583333,0,1 @ F,0,0,1,0,1.0583333,0,1" />
  </defs>
  <sodipodi:namedview
     id="base"
     pagecolor="#000000"
     bordercolor="#666666"
     borderopacity="1.0"
     inkscape:pageopacity="0"
     inkscape:pageshadow="2"
     inkscape:zoom="1.9494505"
     inkscape:cx="113.62176"
     inkscape:cy="162.60993"
     inkscape:document-units="mm"
     inkscape:current-layer="layer1"
     inkscape:document-rotation="0"
     showgrid="false"
     units="px"
     inkscape:pagecheckerboard="true"
     inkscape:window-width="1920"
     inkscape:window-height="1017"
     inkscape:window-x="1841"
     inkscape:window-y="1072"
     inkscape:window-maximized="1"
     inkscape:showpageshadow="0"
     inkscape:deskcolor="#000000" />
  <metadata
     id="metadata5">
    <rdf:RDF>
      <cc:Work
         rdf:about="">
        <dc:format>image/svg+xml</dc:format>
        <dc:type
           rdf:resource="http://purl.org/dc/dcmitype/StillImage" />
      </cc:Work>
    </rdf:RDF>
  </metadata>
  <g
     inkscape:label="Layer 1"
     inkscape:groupmode="layer"
     id="layer1">
    <path
       id="path835"
       style="fill:#000000;fill-opacity:1;stroke-width:6.59802"
       d="M 32.950122,0.5291647 5.4537351,16.404166 a 1.8330845,1.8330845 120.00004 0 0 -0.9165442,1.587499 l -4e-7,31.75 a 1.8330844,1.8330844 59.999965 0 0 0.9165442,1.587499 L 32.950122,67.204165 a 1.8330922,1.8330922 5.210974e-7 0 0 1.833088,0 l 27.496387,-15.875 a 1.8330844,1.8330844 120.00004 0 0 0.916544,-1.587499 V 17.991665 A 1.8330845,1.8330845 59.999965 0 0 62.279597,16.404166 L 34.78321,0.5291647 a 1.8330922,1.8330922 4.2294965e-8 0 0 -1.833088,0 z m 1.833084,6.7732367 21.630603,12.4886306 a 1.8331015,1.8331015 60.000194 0 1 0.91654,1.587506 l 1e-6,24.976254 a 1.8331013,1.8331013 119.99981 0 1 -0.91654,1.587506 l -21.630604,12.48863 a 1.8330584,1.8330584 180 0 1 -1.83308,0 L 11.319522,47.942298 a 1.8331014,1.8331014 60.000194 0 1 -0.91654,-1.587506 V 21.378538 a 1.8331014,1.8331014 119.99981 0 1 0.91654,-1.587506 L 32.950126,7.3024014 a 1.8330583,1.8330583 5.2868928e-7 0 1 1.83308,0 z"
       inkscape:original-d="M 33.866666,-8.3984005e-7 4.5371909,16.933332 4.5371905,50.799998 33.866666,67.733331 63.196141,50.799999 V 16.933332 Z m 0,6.77322933984005 23.463683,13.5469765 1e-6,27.09292 L 33.866666,60.960101 10.402982,47.413125 v -27.09292 z"
       inkscape:path-effect="#path-effect860" />
    <g
       id="g449"
       transform="matrix(0.28855768,0,0,0.28855768,-1.6794554,16.777793)"
       style="fill:#000000;fill-opacity:1">
      <path
         id="rect1574"
         style="fill:#000000;fill-opacity:1;stroke-width:17.8932"
         d="m 124.73145,9.280765 -10.42439,8.313839 v 22.99246 l -0.12347,-0.04991 -5.69293,2.962791 V 20.889705 L 96.23839,31.577584 v 19.495494 l 7.78919,3.867288 2.11995,1.054089 -6.73984,4.28274 -3.1693,2.013183 v 8.636707 l 19.59038,12.646423 2.12238,7.92213 4.99266,-3.32838 0.90203,-0.60062 4.00509,-2.67079 v -0.27301 -0.50092 -10.07062 -6.542812 l -6.81106,7.428314 -10.51702,-8.579722 20.54963,-13.256576 v 18.420087 c 3.05383,-2.628758 6.10718,-5.258183 9.16137,-7.886511 v -31.56033 c -3.05408,-4.303865 -6.10778,-8.608181 -9.16137,-12.912326 v 20.988764 l -6.34101,4.031098 z m -14.39848,21.359129 0.38932,0.548395 z m 24.22933,64.324254 -0.40368,0.44157 2.94627,1.90158 z" />
      <path
         d="m 70.63528,8.815018 v 77.92271 l 25.68698,20.456942 v 9.36556 l 16.20046,12.76514 V 93.038388 L 88.05353,76.07358 V 25.015368 Z"
         style="fill:#000000;fill-opacity:1;stroke-width:17.017"
         id="rect1263" />
      <path
         d="m 175.65171,7.662428 -10.86832,10.585763 -17.41827,16.200371 v 51.468886 l -19.9156,13.47497 -4.64846,-3.22156 0.0129,33.423942 22.42982,-17.86455 16.54697,-13.175882 13.94497,2.027442 -7.72741,-8.209382 7.44021,-8.76255 -10.66654,2.11289 V 55.254521 l 10.8683,-10.626162 V 29.261303 l -10.8683,10.626119 V 33.80044 L 175.65029,23.212268 V 7.899786 Z"
         style="fill:#000000;fill-opacity:1;stroke-width:17.017"
         id="rect1278-3-1" />
    </g>
  </g>
</svg>
